<svg xmlns="http://www.w3.org/2000/svg" viewBox="0 0 512 512" role="img" aria-label="Mascotita">
  <defs>
    <linearGradient id="g" x1="0" y1="0" x2="1" y2="1">
      <stop offset="0" stop-color="#16c28a"/>
      <stop offset="1" stop-color="#2d7dd2"/>
    </linearGradient>
  </defs>
  <rect width="512" height="512" rx="112" fill="url(#g)"/>
  <g fill="#fff">
    <ellipse cx="150" cy="215" rx="42" ry="56" transform="rotate(-20 150 215)"/>
    <ellipse cx="215" cy="140" rx="42" ry="58" transform="rotate(-8 215 140)"/>
    <ellipse cx="297" cy="140" rx="42" ry="58" transform="rotate(8 297 140)"/>
    <ellipse cx="362" cy="215" rx="42" ry="56" transform="rotate(20 362 215)"/>
    <path d="M256 252C320 252 392 318 392 380C392 424 356 446 322 446C298 446 280 436 256 436C232 436 214 446 190 446C156 446 120 424 120 380C120 318 192 252 256 252Z"/>
  </g>
  <g fill="#10a76f">
    <rect x="242" y="308" width="28" height="100" rx="10"/>
    <rect x="206" y="344" width="100" height="28" rx="10"/>
  </g>
</svg>
